/* XPM */
static char * flower_xpm[] = {
"48 48 243 2",
"  	c None",
". 	c #EEFDF7",
"+ 	c #DEECE6",
"@ 	c #DFEDE7",
"# 	c #DCEAE4",
"$ 	c #CEDCD7",
"% 	c #CCD9D4",
"& 	c #E4F3ED",
"* 	c #D0DED9",
"= 	c #EBFAF4",
"- 	c #E1F0EA",
"; 	c #D5E3DD",
"> 	c #E0EEE8",
", 	c #99A29E",
"' 	c #656C69",
") 	c #545A58",
"! 	c #909895",
"~ 	c #DDEBE5",
"{ 	c #E5F4EE",
"] 	c #B6C2BD",
"^ 	c #DEEDE7",
"/ 	c #CFDCD6",
"( 	c #221C13",
"_ 	c #3F392D",
": 	c #C0A16C",
"< 	c #DCB676",
"[ 	c #706144",
"} 	c #111212",
"| 	c #444846",
"1 	c #D8E6E0",
"2 	c #E8F7F1",
"3 	c #E9F8F2",
"4 	c #DAE8E2",
"5 	c #DBE9E3",
"6 	c #C9D7D2",
"7 	c #D2E0DA",
"8 	c #897042",
"9 	c #FAD372",
"0 	c #FAE286",
"a 	c #F9E389",
"b 	c #F9E48A",
"c 	c #F7CC72",
"d 	c #F4C776",
"e 	c #776F59",
"f 	c #181A19",
"g 	c #C8D5CF",
"h 	c #D2DFDA",
"i 	c #C6D3CE",
"j 	c #D7E5DF",
"k 	c #CCDAD4",
"l 	c #B5C1BC",
"m 	c #323534",
"n 	c #7B6B4B",
"o 	c #F9D476",
"p 	c #FAE68C",
"q 	c #FAE78D",
"r 	c #FAD979",
"s 	c #FBC75C",
"t 	c #CBA358",
"u 	c #6E644E",
"v 	c #3C403F",
"w 	c #BCC8C3",
"x 	c #C8D5D0",
"y 	c #C1CDC8",
"z 	c #B2BDB9",
"A 	c #ABB6B1",
"B 	c #B7C3BE",
"C 	c #AAB6B0",
"D 	c #A7B1AC",
"E 	c #5D6361",
"F 	c #655840",
"G 	c #F7D37D",
"H 	c #FAE184",
"I 	c #FAC75C",
"J 	c #FAC75E",
"K 	c #D4AA61",
"L 	c #A38453",
"M 	c #1F1F1C",
"N 	c #B9C3BF",
"O 	c #B4BFBB",
"P 	c #BDC8C3",
"Q 	c #B4C1BC",
"R 	c #A8B3AE",
"S 	c #ABB7B2",
"T 	c #9DA8A4",
"U 	c #343531",
"V 	c #F4C77F",
"W 	c #FAE58A",
"X 	c #FAD16C",
"Y 	c #F2C36D",
"Z 	c #BA975E",
"` 	c #886E44",
" .	c #574A30",
"..	c #828A86",
"+.	c #97A19C",
"@.	c #828B88",
"#.	c #9AA4A0",
"$.	c #7E8884",
"%.	c #858E8A",
"&.	c #626662",
"*.	c #F6CC77",
"=.	c #FAD775",
"-.	c #F2BF58",
";.	c #C39C4F",
">.	c #9E8050",
",.	c #655133",
"'.	c #433621",
").	c #676D6B",
"!.	c #848E89",
"~.	c #7C8581",
"{.	c #919B97",
"].	c #4E5351",
"^.	c #B1A57F",
"/.	c #F1DC85",
"(.	c #F9E58B",
"_.	c #F6C761",
":.	c #DFB151",
"<.	c #BF984A",
"[.	c #A3834B",
"}.	c #685434",
"|.	c #56462C",
"1.	c #262118",
"2.	c #040404",
"3.	c #817350",
"4.	c #CEBD72",
"5.	c #D4C376",
"6.	c #CEB263",
"7.	c #B69142",
"8.	c #AD883F",
"9.	c #977944",
"0.	c #705A38",
"a.	c #433622",
"b.	c #54452B",
"c.	c #959F9C",
"d.	c #050605",
"e.	c #332E22",
"f.	c #796741",
"g.	c #89703E",
"h.	c #735D34",
"i.	c #6A5533",
"j.	c #614F31",
"k.	c #5C4B2F",
"l.	c #343632",
"m.	c #7F8784",
"n.	c #78807D",
"o.	c #EDFCF6",
"p.	c #A6B1AC",
"q.	c #484E4B",
"r.	c #1B1D1C",
"s.	c #141514",
"t.	c #53452D",
"u.	c #56482F",
"v.	c #3C3830",
"w.	c #505754",
"x.	c #777E7B",
"y.	c #79807E",
"z.	c #79827D",
"A.	c #747C79",
"B.	c #7D8682",
"C.	c #838B88",
"D.	c #ECFBF5",
"E.	c #E2F1EB",
"F.	c #A9B4AF",
"G.	c #9FAAA6",
"H.	c #919A97",
"I.	c #9DA7A2",
"J.	c #7C8381",
"K.	c #808985",
"L.	c #8C9592",
"M.	c #8A938F",
"N.	c #8D9693",
"O.	c #A6B1AD",
"P.	c #FFFFFF",
"Q.	c #E3F2EC",
"R.	c #E0EFE9",
"S.	c #C3CFC9",
"T.	c #B0BBB8",
"U.	c #9FAAA5",
"V.	c #A2ABA7",
"W.	c #ACB6B2",
"X.	c #A5B0AC",
"Y.	c #B2BEB9",
"Z.	c #A8B4AF",
"`.	c #99A39E",
" +	c #A2ACA7",
".+	c #DCEBE5",
"++	c #DAE9E3",
"@+	c #B1BDB8",
"#+	c #C2CFC9",
"$+	c #BCC9C4",
"%+	c #BECAC4",
"&+	c #BBC6C1",
"*+	c #BBC7C2",
"=+	c #B9C5C1",
"-+	c #BDCAC4",
";+	c #B3BFB9",
">+	c #C2D0CA",
",+	c #ACB7B3",
"'+	c #E7F6F0",
")+	c #E6F5EF",
"!+	c #C7D4CF",
"~+	c #C4D0CC",
"{+	c #B0BBB6",
"]+	c #BAC6C1",
"^+	c #B6C1BC",
"/+	c #A9B4B0",
"(+	c #D1DED9",
"_+	c #D3E1DB",
":+	c #C9D7D1",
"<+	c #CAD7D3",
"[+	c #B0BBB7",
"}+	c #ACB7B1",
"|+	c #C5D2CC",
"1+	c #BAC6C2",
"2+	c #9DA8A5",
"3+	c #C4D1CB",
"4+	c #D4E2DD",
"5+	c #A7B2AE",
"6+	c #D3E1DC",
"7+	c #CDDBD5",
"8+	c #BAC7C3",
"9+	c #C5D2CD",
"0+	c #BEC9C4",
"a+	c #A4AFAA",
"b+	c #D0DED8",
"c+	c #B1BCB7",
"d+	c #C6D4CE",
"e+	c #CDDAD4",
"f+	c #B8C4BE",
"g+	c #ADB9B4",
"h+	c #D9E7E1",
"i+	c #C2CEC9",
"j+	c #A7B1AD",
"k+	c #CFDDD7",
"l+	c #99A39F",
"m+	c #D7E4DE",
"n+	c #CEDBD6",
"o+	c #D5E3DE",
"p+	c #939C98",
"q+	c #A1ABA7",
"r+	c #C0CDC8",
"s+	c #A3AEA9",
"t+	c #C4D0CB",
"                                                                                                ",
"                                                                                                ",
"                                                                                                ",
"                                                                                                ",
"                                                                                                ",
"                                                                                                ",
"                                                                                                ",
"                                                                                                ",
"                                                                                                ",
"                                                                                                ",
"                                                    . + @                                       ",
"                                                  . . # @ $                                     ",
"                                                  . . # @ %                                     ",
"                                                . . . & # *                                     ",
"                            . .               . . . . = - ;                                     ",
"                            . . . .           > , ' ) ! ~ {       ] . . - ^ /                   ",
"                            . . . . . .       ( _ : < [ } | 1 . = 2 . . 3 4 5 6 7               ",
"                              . . . . . .   8 9 0 a b c d e f g h i j # ^ k 7 $ l               ",
"                              . . . . = m n o p q q q r s t u v w x y z A B C D                 ",
"                                . . . E F G p q q q H I J K L M N O P Q R S T                   ",
"                                  . . U V W q q q q X s Y Z `  ...+.@.#.$.%.                    ",
"                                    . &.*.p q q q =.I -.;.>.,.'.).!.~.{.                        ",
"                                      ].^./.q q (._.:.<.[.}.|.1.                                ",
"                                        2.3.4.5.6.7.8.9.0.a.b.                                  ",
"                              . . . . . c.d.e.f.g.h.i.j.k.b.l.m.n.n.                            ",
"                            . . . . . . o.  p.q.r.s.t.u.v.w.x.y.z.A.B.C.                        ",
"                        . . . . . . o.D.E.  . 2 > # k F.G.H.I.~.J.K.L.M.N.O.                    ",
"                      . . . D.. D.E.x P.7     . D.2 Q.R.S.T.U.V.A W.X.Y.Z.`. +                  ",
"                    2 P.3 . .+.+++y @+#+      . . D.~       $+$+%+&+*+=+-+;+>+,+                ",
"                  = '+)+j !+~+{+]+^+/+        o.= E.(+          _+:+<+* [+}+|+1+2+              ",
"                    + 1 3+=+R p.              = 5 > 4+5+            6+7+8+p.9+0+a+              ",
"                                            . )+)+P.b+c+                  d+e+f+g+              ",
"                                              h+> + i+j+                                        ",
"                                              + 7 E.k+l+                                        ",
"                                              2 m+n+o+p+                                        ",
"                                              { h+b+P.q+                                        ",
"                                                .+r+q+s+                                        ",
"                                                  t+                                            ",
"                                                                                                ",
"                                                                                                ",
"                                                                                                ",
"                                                                                                ",
"                                                                                                ",
"                                                                                                ",
"                                                                                                ",
"                                                                                                ",
"                                                                                                ",
"                                                                                                "};
